<?xml version="1.0" encoding="UTF-8" standalone="no"?>
<!-- Created with Inkscape (http://www.inkscape.org/) -->

<svg
   xmlns:dc="http://purl.org/dc/elements/1.1/"
   xmlns:cc="http://creativecommons.org/ns#"
   xmlns:rdf="http://www.w3.org/1999/02/22-rdf-syntax-ns#"
   xmlns:svg="http://www.w3.org/2000/svg"
   xmlns="http://www.w3.org/2000/svg"
   xmlns:sodipodi="http://sodipodi.sourceforge.net/DTD/sodipodi-0.dtd"
   xmlns:inkscape="http://www.inkscape.org/namespaces/inkscape"
   width="758.47534"
   height="396.68942"
   id="svg5289"
   version="1.1"
   inkscape:version="0.48.4 r9939"
   sodipodi:docname="New document 3">
  <defs
     id="defs5291">
    <clipPath
       clipPathUnits="userSpaceOnUse"
       id="clipPath1246">
      <path
         inkscape:connector-curvature="0"
         d="m 86.625,290.571 124.953,0 0,65.353 -124.953,0 0,-65.353 z"
         id="path1248" />
    </clipPath>
    <clipPath
       clipPathUnits="userSpaceOnUse"
       id="clipPath1236">
      <path
         inkscape:connector-curvature="0"
         d="m 148.927,350.519 c 0,-0.095 0.078,-0.173 0.173,-0.173 l 0,0 c 0.096,0 0.174,0.078 0.174,0.173 l 0,0 c 0,0.095 -0.078,0.173 -0.174,0.173 l 0,0 c -0.095,0 -0.173,-0.078 -0.173,-0.173"
         id="path1238" />
    </clipPath>
    <clipPath
       clipPathUnits="userSpaceOnUse"
       id="clipPath1044">
      <path
         inkscape:connector-curvature="0"
         d="m 86.625,290.571 124.953,0 0,65.353 -124.953,0 0,-65.353 z"
         id="path1046" />
    </clipPath>
  </defs>
  <sodipodi:namedview
     id="base"
     pagecolor="#ffffff"
     bordercolor="#666666"
     borderopacity="1.0"
     inkscape:pageopacity="0.0"
     inkscape:pageshadow="2"
     inkscape:zoom="1"
     inkscape:cx="193.59889"
     inkscape:cy="73.620806"
     inkscape:document-units="px"
     inkscape:current-layer="layer1"
     showgrid="false"
     fit-margin-top="0"
     fit-margin-left="0"
     fit-margin-right="0"
     fit-margin-bottom="0"
     inkscape:window-width="1680"
     inkscape:window-height="987"
     inkscape:window-x="-8"
     inkscape:window-y="-8"
     inkscape:window-maximized="1" />
  <metadata
     id="metadata5294">
    <rdf:RDF>
      <cc:Work
         rdf:about="">
        <dc:format>image/svg+xml</dc:format>
        <dc:type
           rdf:resource="http://purl.org/dc/dcmitype/StillImage" />
        <dc:title></dc:title>
      </cc:Work>
    </rdf:RDF>
  </metadata>
  <g
     inkscape:label="Layer 1"
     inkscape:groupmode="layer"
     id="layer1"
     transform="translate(-181.40111,-193.94607)">
    <g
       transform="matrix(6.0700852,0,0,-6.0700852,-344.42002,2354.4341)"
       id="g1040">
      <g
         id="g1042"
         clip-path="url(#clipPath1044)">
        <g
           id="g1048"
           transform="translate(209.6665,345.7368)">
          <path
             inkscape:connector-curvature="0"
             d="m 0,0 c 0.619,0.207 0.642,0.738 0.474,1.098 -2.433,5.175 -6.872,7.977 -13.746,8.942 -0.479,0.066 -0.782,-0.158 -0.792,-0.771 L -14.058,7.782 -1.25,-0.652 0,0 z"
             style="fill:#ffffff;fill-opacity:1;fill-rule:nonzero;stroke:none"
             id="path1050" />
        </g>
        <g
           id="g1052"
           transform="translate(209.6665,345.7368)">
          <path
             inkscape:connector-curvature="0"
             d="m 0,0 0.043,-0.129 c 0.465,0.149 0.663,0.507 0.656,0.836 0,0.161 -0.04,0.315 -0.102,0.449 l 0,0 c -2.451,5.22 -6.951,8.054 -13.85,9.019 l -10e-4,0 -0.171,0.012 c -0.221,0.002 -0.426,-0.071 -0.565,-0.234 -0.139,-0.162 -0.205,-0.391 -0.21,-0.682 l 0,-0.002 0.006,-1.487 0.06,-0.113 12.808,-8.435 0.138,-0.007 1.251,0.652 L 0,0 0.043,-0.129 0,0 l -0.062,0.121 -1.18,-0.616 -12.68,8.351 -0.006,1.414 -0.136,-10e-4 0.136,-0.002 c 0.004,0.254 0.063,0.416 0.144,0.509 0.081,0.092 0.19,0.138 0.359,0.139 l 0.135,-0.01 0,0.001 C -6.442,8.94 -2.065,6.17 0.35,1.04 l 0,0 C 0.398,0.939 0.427,0.821 0.427,0.707 0.421,0.473 0.326,0.258 -0.043,0.129 L -0.062,0.121 0,0 z"
             style="fill:#231f20;fill-opacity:1;fill-rule:nonzero;stroke:none"
             id="path1054" />
        </g>
        <g
           id="g1056"
           transform="translate(88.5334,345.7368)">
          <path
             inkscape:connector-curvature="0"
             d="M 0,0 C -0.617,0.207 -0.641,0.738 -0.473,1.098 1.96,6.273 6.4,9.075 13.272,10.04 13.751,10.106 14.055,9.882 14.064,9.269 L 14.059,7.782 1.251,-0.652 0,0 z"
             style="fill:#ffffff;fill-opacity:1;fill-rule:nonzero;stroke:none"
             id="path1058" />
        </g>
        <g
           id="g1060"
           transform="translate(88.5334,345.7368)">
          <path
             inkscape:connector-curvature="0"
             d="m 0,0 0.043,0.129 c -0.368,0.13 -0.463,0.344 -0.469,0.579 0,0.114 0.029,0.232 0.076,0.333 l 0,-10e-4 c 2.416,5.13 6.795,7.9 13.641,8.866 l -0.001,-0.001 0.135,0.01 c 0.169,-10e-4 0.279,-0.047 0.36,-0.14 0.081,-0.093 0.14,-0.254 0.143,-0.508 L 14.064,9.269 13.928,9.27 13.923,7.856 1.243,-0.495 0.063,0.121 0.043,0.129 0,0 l -0.063,-0.121 1.251,-0.652 0.138,0.007 12.808,8.435 0.061,0.113 0.006,1.487 0,0.002 c -0.005,0.291 -0.071,0.52 -0.21,0.682 -0.139,0.163 -0.345,0.236 -0.566,0.234 l -0.172,-0.012 0,0 C 6.356,9.21 1.855,6.376 -0.597,1.156 l 0,0 C -0.659,1.022 -0.698,0.868 -0.698,0.708 -0.705,0.379 -0.507,0.02 -0.043,-0.129 L 0,0 -0.063,-0.121 0,0 z"
             style="fill:#231f20;fill-opacity:1;fill-rule:nonzero;stroke:none"
             id="path1062" />
        </g>
        <g
           id="g1064"
           transform="translate(187.7257,290.7083)">
          <path
             inkscape:connector-curvature="0"
             d="m 0,0 c 21.03,0 23.71,10.691 23.71,24.366 l 0.007,15.978 -0.003,2.338 c 0,10.856 -1.071,22.387 -21.96,22.387 l -80.757,0 c -20.888,0 -21.959,-11.531 -21.959,-22.387 l -0.003,-2.338 0.004,-15.978 C -100.961,10.691 -98.28,0 -77.25,0 L 0,0"
             style="fill:#ffffff;fill-opacity:1;fill-rule:nonzero;stroke:none"
             id="path1066" />
        </g>
        <g
           id="g1068"
           transform="translate(187.7257,290.7083)">
          <path
             inkscape:connector-curvature="0"
             d="m 0,0 0,-0.136 c 10.534,-0.002 16.518,2.681 19.85,7.109 3.33,4.427 3.995,10.549 3.996,17.393 l 0.007,15.978 0,0 -0.003,2.339 0,-10e-4 c -0.002,5.432 -0.263,11.055 -3.17,15.341 -2.91,4.288 -8.461,7.184 -18.926,7.182 l -80.757,0 c -10.465,0.002 -16.015,-2.894 -18.925,-7.182 -2.907,-4.286 -3.168,-9.909 -3.17,-15.341 l 0,10e-4 -0.003,-2.339 0,0 0.004,-15.978 0,0 c 0.002,-6.844 0.667,-12.966 3.997,-17.393 3.333,-4.428 9.316,-7.111 19.85,-7.109 L 0,-0.136 0,0 l 0,0.136 -77.25,0 c -10.496,0.002 -16.368,2.665 -19.633,7.001 -3.268,4.337 -3.943,10.399 -3.942,17.229 l -0.004,15.978 0,0 0.003,2.338 0,0 c -0.001,5.425 0.273,10.994 3.123,15.188 2.848,4.191 8.277,7.06 18.7,7.063 l 80.757,0 c 10.424,-0.003 15.853,-2.872 18.7,-7.063 2.851,-4.194 3.125,-9.763 3.124,-15.188 l 0,0 0.003,-2.338 0,0 -0.007,-15.978 C 23.575,17.536 22.9,11.474 19.633,7.137 16.368,2.801 10.496,0.138 0,0.136 L 0,0 z"
             style="fill:#231f20;fill-opacity:1;fill-rule:nonzero;stroke:none"
             id="path1070" />
        </g>
        <g
           id="g1072"
           transform="translate(149.1002,294.8318)">
          <path
             inkscape:connector-curvature="0"
             d="m 0,0 c -1.134,0 -2.052,0.917 -2.052,2.052 0,1.134 0.918,2.053 2.052,2.053 1.134,0 2.053,-0.919 2.053,-2.053 C 2.053,0.917 1.134,0 0,0 m 0,4.549 c -1.38,0 -2.497,-1.118 -2.497,-2.497 0,-1.379 1.117,-2.497 2.497,-2.497 1.379,0 2.496,1.118 2.496,2.497 0,1.379 -1.117,2.497 -2.496,2.497"
             style="fill:#51bbed;fill-opacity:1;fill-rule:nonzero;stroke:none"
             id="path1074" />
        </g>
        <g
           id="g1076"
           transform="translate(182.4817,303.5113)">
          <path
             inkscape:connector-curvature="0"
             d="m 0,0 -33.38,0 -33.382,0 c -0.277,0 -0.53,0.114 -0.713,0.296 l 0,0 c -0.183,0.183 -0.295,0.436 -0.295,0.713 l 0,37.445 c 0,0.276 0.113,0.528 0.295,0.711 l 10e-4,0.002 c 0.182,0.179 0.434,0.294 0.712,0.295 l 33.382,0 33.38,0 C 0.278,39.461 0.53,39.346 0.713,39.167 L 0.715,39.165 C 0.894,38.982 1.007,38.73 1.007,38.454 l 0,-37.445 c 0,-0.277 -0.112,-0.53 -0.293,-0.712 l 0,-0.001 C 0.53,0.114 0.278,0 0,0 l 0,0.136 0,0.136 c 0.202,0 0.386,0.082 0.521,0.216 0.132,0.134 0.214,0.318 0.214,0.521 l 0,37.445 c 0,0.201 -0.081,0.384 -0.213,0.519 C 0.386,39.106 0.201,39.189 0,39.189 l -33.38,0 -33.382,0 0,0 c -0.201,0 -0.385,-0.083 -0.52,-0.215 -0.134,-0.136 -0.216,-0.318 -0.216,-0.52 l 0,-37.445 c 0,-0.203 0.082,-0.386 0.216,-0.521 l -0.001,0.001 c 0.135,-0.134 0.319,-0.217 0.521,-0.217 l 33.382,0 L 0,0.272 0,0.136 0,0 m 0.618,0.392 0,0"
             style="fill:#231f20;fill-opacity:1;fill-rule:nonzero;stroke:none"
             id="path1078" />
        </g>
        <g
           id="g1080"
           transform="translate(115.7198,342.4704)">
          <path
             inkscape:connector-curvature="0"
             d="m 0,0 c -0.134,0 -0.262,-0.052 -0.359,-0.148 -0.095,-0.096 -0.147,-0.223 -0.147,-0.357 l 0,-37.445 c 0,-0.136 0.052,-0.262 0.147,-0.358 0.097,-0.096 0.225,-0.149 0.359,-0.149 l 66.762,0 c 0.133,0 0.261,0.053 0.358,0.149 0.095,0.096 0.149,0.222 0.149,0.358 l 0,37.445 c 0,0.134 -0.054,0.261 -0.15,0.357 C 67.023,-0.052 66.895,0 66.762,0 L 0,0 z"
             style="fill:#4f4c4d;fill-opacity:1;fill-rule:nonzero;stroke:none"
             id="path1082" />
        </g>
        <g
           id="g1084"
           transform="translate(115.7198,342.4704)">
          <path
             inkscape:connector-curvature="0"
             d="m 0,0 0,0.136 c -0.169,0 -0.333,-0.066 -0.454,-0.187 l -0.001,-0.001 c -0.12,-0.121 -0.188,-0.283 -0.187,-0.453 l 0,-37.445 c -0.001,-0.171 0.067,-0.333 0.187,-0.454 l 0.001,-10e-4 c 0.121,-0.12 0.284,-0.188 0.454,-0.188 l 66.762,0 c 0.169,0 0.332,0.067 0.454,0.188 l 0.001,10e-4 c 0.118,0.12 0.188,0.282 0.188,0.454 l 0,37.445 c 0,0.171 -0.07,0.333 -0.19,0.454 l 0,-0.001 C 67.094,0.07 66.931,0.136 66.762,0.136 L 0,0.136 0,0 l 0,-0.136 66.762,0 c 0.098,0 0.191,-0.038 0.261,-0.108 l 0,0 c 0.071,-0.072 0.109,-0.163 0.11,-0.261 l 0,-37.445 c -10e-4,-0.099 -0.039,-0.191 -0.11,-0.263 l 0.097,-0.095 -0.096,0.096 c -0.072,-0.071 -0.165,-0.108 -0.262,-0.109 l -66.762,0 c -0.098,10e-4 -0.191,0.039 -0.263,0.11 l -0.096,-0.097 0.097,0.095 c -0.07,0.072 -0.108,0.163 -0.108,0.263 l 0,37.445 c 0,0.099 0.038,0.19 0.108,0.262 l -0.097,0.095 0.096,-0.096 c 0.071,0.07 0.164,0.108 0.263,0.108 L 0,0 z"
             style="fill:#231f20;fill-opacity:1;fill-rule:nonzero;stroke:none"
             id="path1086" />
        </g>
        <g
           id="g1088"
           transform="translate(184.4753,303.5325)">
          <path
             inkscape:connector-curvature="0"
             d="m 0,0 -0.136,0 c -0.001,-0.464 -0.376,-0.837 -0.838,-0.838 l -68.801,0 c -0.463,0 -0.838,0.374 -0.838,0.838 l 0,39.421 c 0.001,0.461 0.375,0.837 0.838,0.837 l 68.801,0 c 0.462,0 0.837,-0.376 0.838,-0.837 L -0.136,0 0,0 l 0.136,0 0,39.421 c 0,0.612 -0.498,1.109 -1.11,1.11 l -68.801,0 c -0.614,-10e-4 -1.11,-0.498 -1.11,-1.11 l 0,-39.421 c 0.001,-0.614 0.497,-1.109 1.11,-1.11 l 68.801,0 c 0.612,0 1.11,0.496 1.11,1.11 L 0,0 z"
             style="fill:#231f20;fill-opacity:1;fill-rule:nonzero;stroke:none"
             id="path1090" />
        </g>
        <g
           id="g1092"
           transform="translate(164.9386,352.8036)">
          <path
             inkscape:connector-curvature="0"
             d="M 0,0 C 1.114,0 2.016,-1.042 2.016,-2.329 2.016,-3.614 1.114,-4.658 0,-4.658 l -31.675,0 c -1.114,0 -2.018,1.044 -2.018,2.329 0,1.287 0.904,2.329 2.018,2.329 L 0,0 z"
             style="fill:#444141;fill-opacity:1;fill-rule:nonzero;stroke:none"
             id="path1094" />
        </g>
        <g
           id="g1096"
           transform="translate(164.9386,352.8036)">
          <path
             inkscape:connector-curvature="0"
             d="m 0,0 0,-0.136 c 0.514,0 0.98,-0.239 1.323,-0.635 C 1.665,-1.166 1.88,-1.717 1.88,-2.329 1.88,-2.939 1.665,-3.491 1.323,-3.886 0.98,-4.282 0.514,-4.522 0,-4.522 l -31.675,0 c -0.513,0 -0.98,0.24 -1.324,0.636 -0.343,0.396 -0.558,0.947 -0.558,1.557 0,0.612 0.215,1.163 0.558,1.558 0.344,0.396 0.811,0.635 1.324,0.635 L 0,-0.136 0,0 l 0,0.136 -31.675,0 c -1.205,-0.003 -2.152,-1.117 -2.154,-2.465 0.002,-1.346 0.949,-2.461 2.154,-2.465 L 0,-4.794 C 1.205,-4.79 2.15,-3.675 2.152,-2.329 2.15,-0.981 1.205,0.133 0,0.136 L 0,0 z"
             style="fill:#231f20;fill-opacity:1;fill-rule:nonzero;stroke:none"
             id="path1098" />
        </g>
        <g
           id="g1100"
           transform="translate(150.5831,350.5192)">
          <path
             inkscape:connector-curvature="0"
             d="m 0,0 c 0,-0.82 -0.662,-1.484 -1.483,-1.484 -0.818,0 -1.483,0.664 -1.483,1.484 0,0.82 0.665,1.483 1.483,1.483 C -0.662,1.483 0,0.82 0,0"
             style="fill:#231f20;fill-opacity:1;fill-rule:nonzero;stroke:none"
             id="path1102" />
        </g>
        <g
           id="g1104"
           transform="translate(150.447,350.5192)">
          <path
             inkscape:connector-curvature="0"
             d="M 0,0 C 0,-0.745 -0.601,-1.347 -1.347,-1.348 -2.09,-1.346 -2.693,-0.745 -2.694,0 -2.693,0.745 -2.09,1.346 -1.347,1.347 -0.601,1.347 0,0.745 0,0 L 0.272,0 C 0.27,0.895 -0.451,1.618 -1.347,1.619 -2.24,1.619 -2.966,0.895 -2.966,0 c 0,-0.896 0.726,-1.62 1.619,-1.62 0.896,0.002 1.617,0.725 1.619,1.62 L 0,0 z"
             style="fill:#231f20;fill-opacity:1;fill-rule:nonzero;stroke:none"
             id="path1106" />
        </g>
        <g
           id="g1108"
           transform="translate(192.5225,326.6009)">
          <path
             inkscape:connector-curvature="0"
             d="M 0,0 C 0,1.24 -1.006,2.246 -2.245,2.246 -3.484,2.246 -4.489,1.24 -4.489,0 c 0,-1.24 1.005,-2.245 2.244,-2.245 C -1.006,-2.245 0,-1.24 0,0"
             style="fill:#ffffff;fill-opacity:1;fill-rule:nonzero;stroke:none"
             id="path1110" />
        </g>
        <g
           id="g1112"
           transform="translate(192.5225,326.6009)">
          <path
             inkscape:connector-curvature="0"
             d="m 0,0 0.136,0 c 0,1.315 -1.066,2.382 -2.381,2.382 -1.314,0 -2.38,-1.067 -2.38,-2.382 0,-1.315 1.066,-2.381 2.38,-2.381 1.315,0 2.381,1.066 2.381,2.381 L 0,0 -0.137,0 C -0.138,-1.165 -1.081,-2.106 -2.245,-2.108 -3.409,-2.106 -4.35,-1.165 -4.353,0 -4.35,1.165 -3.409,2.107 -2.245,2.11 -1.081,2.107 -0.138,1.165 -0.137,0 L 0,0 z"
             style="fill:#231f20;fill-opacity:1;fill-rule:nonzero;stroke:none"
             id="path1114" />
        </g>
        <g
           id="g1116"
           transform="translate(197.8929,331.4286)">
          <path
             inkscape:connector-curvature="0"
             d="M 0,0 C 0,1.24 -1.004,2.245 -2.244,2.245 -3.484,2.245 -4.49,1.24 -4.49,0 c 0,-1.24 1.006,-2.245 2.246,-2.245 C -1.004,-2.245 0,-1.24 0,0"
             style="fill:#ffffff;fill-opacity:1;fill-rule:nonzero;stroke:none"
             id="path1118" />
        </g>
        <g
           id="g1120"
           transform="translate(197.8929,331.4286)">
          <path
             inkscape:connector-curvature="0"
             d="M 0,0 0.137,0 C 0.136,1.315 -0.929,2.381 -2.244,2.381 -3.559,2.381 -4.626,1.315 -4.626,0 c 0,-1.315 1.067,-2.381 2.382,-2.381 1.315,0 2.38,1.066 2.381,2.381 L 0,0 -0.136,0 c -0.002,-1.165 -0.943,-2.107 -2.108,-2.109 -1.165,0.002 -2.108,0.944 -2.11,2.109 0.002,1.165 0.945,2.107 2.11,2.109 C -1.079,2.107 -0.138,1.165 -0.136,0 L 0,0 z"
             style="fill:#231f20;fill-opacity:1;fill-rule:nonzero;stroke:none"
             id="path1122" />
        </g>
        <g
           id="g1124"
           transform="translate(203.1705,326.6001)">
          <path
             inkscape:connector-curvature="0"
             d="M 0,0 C 0,1.24 -1.006,2.245 -2.245,2.245 -3.485,2.245 -4.49,1.24 -4.49,0 c 0,-1.241 1.005,-2.246 2.245,-2.246 C -1.006,-2.246 0,-1.241 0,0"
             style="fill:#ffffff;fill-opacity:1;fill-rule:nonzero;stroke:none"
             id="path1126" />
        </g>
        <g
           id="g1128"
           transform="translate(203.1705,326.6001)">
          <path
             inkscape:connector-curvature="0"
             d="m 0,0 0.136,0 c 0,1.316 -1.067,2.381 -2.381,2.381 -1.315,0 -2.381,-1.066 -2.381,-2.381 0,-1.316 1.066,-2.382 2.381,-2.382 1.314,0 2.381,1.066 2.381,2.382 L 0,0 -0.136,0 C -0.138,-1.166 -1.082,-2.108 -2.245,-2.11 -3.41,-2.108 -4.351,-1.166 -4.354,0 -4.351,1.165 -3.41,2.107 -2.245,2.109 -1.082,2.107 -0.138,1.165 -0.136,0 L 0,0 z"
             style="fill:#231f20;fill-opacity:1;fill-rule:nonzero;stroke:none"
             id="path1130" />
        </g>
        <g
           id="g1132"
           transform="translate(197.8929,321.7677)">
          <path
             inkscape:connector-curvature="0"
             d="M 0,0 C 0,1.242 -1.004,2.245 -2.244,2.245 -3.484,2.245 -4.49,1.242 -4.49,0 c 0,-1.238 1.006,-2.245 2.246,-2.245 C -1.004,-2.245 0,-1.238 0,0"
             style="fill:#ffffff;fill-opacity:1;fill-rule:nonzero;stroke:none"
             id="path1134" />
        </g>
        <g
           id="g1136"
           transform="translate(197.8929,321.7677)">
          <path
             inkscape:connector-curvature="0"
             d="M 0,0 0.137,0 C 0.134,1.317 -0.93,2.379 -2.244,2.381 -3.559,2.381 -4.626,1.317 -4.626,0 c 0,-1.313 1.067,-2.38 2.382,-2.381 1.315,10e-4 2.38,1.068 2.381,2.381 L 0,0 -0.136,0 c -0.002,-1.162 -0.944,-2.106 -2.108,-2.108 -1.165,0.002 -2.108,0.946 -2.11,2.108 0.002,1.167 0.945,2.107 2.11,2.109 1.165,0 2.108,-0.942 2.108,-2.109 L 0,0 z"
             style="fill:#231f20;fill-opacity:1;fill-rule:nonzero;stroke:none"
             id="path1138" />
        </g>
        <g
           id="g1140"
           transform="translate(190.3977,325.8353)">
          <path
             inkscape:connector-curvature="0"
             d="m 0,0 -0.22,0 0,0.676 -0.586,0.891 0.27,0 0.432,-0.71 0.437,0.71 0.253,0 L 0,0.676 0,0 z"
             style="fill:#918f90;fill-opacity:1;fill-rule:nonzero;stroke:none"
             id="path1142" />
        </g>
        <g
           id="g1144"
           transform="translate(195.6489,331.6262)">
          <path
             inkscape:connector-curvature="0"
             d="m 0,0 0.374,0.584 0.255,0 -0.5,-0.74 0.568,-0.826 -0.276,0 -0.429,0.66 -0.421,-0.66 -0.269,0 0.56,0.831 -0.505,0.735 0.266,0 L 0,0 z"
             style="fill:#918f90;fill-opacity:1;fill-rule:nonzero;stroke:none"
             id="path1146" />
        </g>
        <g
           id="g1148"
           transform="translate(189.4777,297.3067)">
          <path
             inkscape:connector-curvature="0"
             d="m 0,0 c -0.213,0 -0.383,-0.189 -0.383,-0.422 0,-0.236 0.17,-0.423 0.383,-0.423 l 1.601,0 c 0.213,0 0.383,0.187 0.383,0.423 C 1.984,-0.189 1.814,0 1.601,0 L 0,0 z"
             style="fill:#231f20;fill-opacity:1;fill-rule:nonzero;stroke:none"
             id="path1150" />
        </g>
        <g
           id="g1152"
           transform="translate(188.7769,313.9513)">
          <path
             inkscape:connector-curvature="0"
             d="M 0,0 0.136,0 C 0.138,0.729 0.726,1.318 1.455,1.319 2.184,1.318 2.773,0.729 2.774,0 2.773,-0.729 2.184,-1.317 1.455,-1.319 0.726,-1.319 0.138,-0.729 0.136,0 L 0,0 -0.136,0 c 0,-0.879 0.712,-1.589 1.591,-1.591 0.879,0 1.591,0.712 1.591,1.591 0,0.879 -0.712,1.591 -1.591,1.592 C 0.575,1.592 -0.136,0.879 -0.136,0 L 0,0 z"
             style="fill:#231f20;fill-opacity:1;fill-rule:nonzero;stroke:none"
             id="path1154" />
        </g>
        <g
           id="g1156"
           transform="translate(107.1448,297.3067)">
          <path
             inkscape:connector-curvature="0"
             d="m 0,0 c -0.211,0 -0.382,-0.189 -0.382,-0.422 0,-0.236 0.171,-0.423 0.382,-0.423 l 1.602,0 c 0.211,0 0.383,0.187 0.383,0.423 C 1.985,-0.189 1.813,0 1.602,0 L 0,0 z"
             style="fill:#231f20;fill-opacity:1;fill-rule:nonzero;stroke:none"
             id="path1158" />
        </g>
        <g
           id="g1160"
           transform="translate(169.4217,296.8833)">
          <path
             inkscape:connector-curvature="0"
             d="m 0,0 c 0,-0.198 -0.16,-0.358 -0.358,-0.358 -0.196,0 -0.358,0.16 -0.358,0.358 0,0.199 0.162,0.359 0.358,0.359 C -0.16,0.359 0,0.199 0,0"
             style="fill:#231f20;fill-opacity:1;fill-rule:nonzero;stroke:none"
             id="path1162" />
        </g>
        <g
           id="g1164"
           transform="translate(169.2857,296.8833)">
          <path
             inkscape:connector-curvature="0"
             d="m 0,0 c -0.001,-0.123 -0.098,-0.222 -0.222,-0.222 -0.121,0 -0.222,0.1 -0.222,0.222 0,0.124 0.101,0.222 0.222,0.223 C -0.098,0.222 -0.001,0.125 0,0 0,-0.075 0.061,-0.136 0.136,-0.136 0.211,-0.136 0.272,-0.075 0.272,0 0.271,0.274 0.051,0.494 -0.222,0.495 -0.494,0.495 -0.716,0.275 -0.716,0 -0.715,-0.274 -0.494,-0.493 -0.222,-0.494 0.051,-0.493 0.271,-0.272 0.272,0 0.272,0.075 0.211,0.136 0.136,0.136 0.061,0.136 0,0.075 0,0"
             style="fill:#231f20;fill-opacity:1;fill-rule:nonzero;stroke:none"
             id="path1166" />
        </g>
        <g
           id="g1168"
           transform="translate(176.1105,298.3724)">
          <path
             inkscape:connector-curvature="0"
             d="m 0,0 0,0.136 -1.45,0 c -0.476,-0.001 -0.866,-0.39 -0.867,-0.867 l 0,-1.449 c 0.001,-0.48 0.391,-0.866 0.867,-0.866 l 1.45,0 c 0.475,0 0.866,0.387 0.866,0.866 l 0,1.449 C 0.865,-0.254 0.476,0.135 0,0.136 L 0,0 0,-0.136 c 0.324,-0.001 0.593,-0.27 0.594,-0.595 l 0,-1.449 C 0.593,-2.508 0.325,-2.773 0,-2.774 l -1.45,0 c -0.324,10e-4 -0.594,0.266 -0.595,0.594 l 0,1.449 c 10e-4,0.325 0.271,0.594 0.595,0.595 L 0,-0.136 0,0 z"
             style="fill:#231f20;fill-opacity:1;fill-rule:nonzero;stroke:none"
             id="path1170" />
        </g>
        <g
           id="g1172"
           transform="translate(142.0299,296.8833)">
          <path
             inkscape:connector-curvature="0"
             d="m 0,0 c 0,-0.134 -0.107,-0.244 -0.242,-0.244 -0.135,0 -0.244,0.11 -0.244,0.244 0,0.135 0.109,0.244 0.244,0.244 C -0.107,0.244 0,0.135 0,0"
             style="fill:#231f20;fill-opacity:1;fill-rule:nonzero;stroke:none"
             id="path1174" />
        </g>
        <g
           id="g1176"
           transform="translate(149.1002,294.8318)">
          <path
             inkscape:connector-curvature="0"
             d="m 0,0 c -1.134,0 -2.052,0.917 -2.052,2.052 0,1.134 0.918,2.053 2.052,2.053 1.134,0 2.053,-0.919 2.053,-2.053 C 2.053,0.917 1.134,0 0,0"
             style="fill:#ffffff;fill-opacity:1;fill-rule:nonzero;stroke:none"
             id="path1178" />
        </g>
        <g
           id="g1180"
           transform="translate(149.1002,294.8318)">
          <path
             inkscape:connector-curvature="0"
             d="m 0,0 0,0.136 c -1.059,0 -1.914,0.856 -1.916,1.916 C -1.914,3.111 -1.059,3.967 0,3.969 1.058,3.967 1.915,3.111 1.917,2.052 1.915,0.992 1.059,0.138 0,0.136 L 0,0 0,-0.136 c 1.209,0 2.189,0.978 2.189,2.188 0,1.209 -0.98,2.189 -2.189,2.189 -1.209,0 -2.188,-0.98 -2.188,-2.189 0,-1.21 0.979,-2.186 2.188,-2.188 L 0,0 z"
             style="fill:#231f20;fill-opacity:1;fill-rule:nonzero;stroke:none"
             id="path1182" />
        </g>
        <g
           id="g1184"
           transform="translate(200.6289,326.4492)">
          <path
             inkscape:connector-curvature="0"
             d="M 0,0 0.585,0 0.294,0.732 0,0 z m -0.233,-0.575 -0.241,0 0.674,1.559 0.197,0 0.671,-1.559 -0.246,0 -0.16,0.383 -0.738,0 -0.157,-0.383 z"
             style="fill:#918f90;fill-opacity:1;fill-rule:nonzero;stroke:none"
             id="path1186" />
        </g>
        <g
           id="g1188"
           transform="translate(195.3737,321.177)">
          <path
             inkscape:connector-curvature="0"
             d="m 0,0 0.273,0 c 0.184,0 0.386,0.058 0.386,0.27 0,0.182 -0.129,0.261 -0.368,0.261 L 0,0.531 0,0 z m 0,0.716 0.284,0 c 0.167,0 0.306,0.073 0.306,0.242 0,0.167 -0.136,0.233 -0.342,0.233 L 0,1.191 0,0.716 z m -0.218,0.657 0.536,0 c 0.236,0 0.49,-0.096 0.49,-0.393 0,-0.172 -0.111,-0.294 -0.274,-0.339 l 0,-0.005 C 0.737,0.613 0.882,0.477 0.882,0.258 c 0,-0.299 -0.263,-0.442 -0.588,-0.442 l -0.512,0 0,1.557 z"
             style="fill:#918f90;fill-opacity:1;fill-rule:nonzero;stroke:none"
             id="path1190" />
        </g>
        <g
           id="g1192"
           transform="translate(190.8153,314.0536)">
          <path
             inkscape:connector-curvature="0"
             d="m 0,0 -0.433,0 -0.045,0.047 0,0.433 -0.046,0.046 -0.118,0 -0.046,-0.046 0,-0.433 L -0.734,0 l -0.433,0 -0.047,-0.045 0,-0.118 0.047,-0.046 0.433,0 0.046,-0.047 0,-0.429 0.046,-0.048 0.118,0 0.046,0.048 0,0.429 0.045,0.047 0.433,0 0.045,0.046 0,0.118 L 0,0 z"
             style="fill:#918f90;fill-opacity:1;fill-rule:nonzero;stroke:none"
             id="path1194" />
        </g>
        <g
           id="g1196"
           transform="translate(191.6865,307.6231)">
          <path
             inkscape:connector-curvature="0"
             d="m 0,0 0.136,0 c 0,0.877 -0.711,1.591 -1.59,1.591 -0.88,0 -1.592,-0.713 -1.592,-1.591 0,-0.879 0.712,-1.592 1.592,-1.592 0.879,0 1.59,0.713 1.59,1.592 L 0,0 -0.136,0 c -0.002,-0.729 -0.59,-1.319 -1.318,-1.32 -0.73,0.001 -1.318,0.591 -1.32,1.32 0.002,0.727 0.59,1.317 1.32,1.319 C -0.726,1.317 -0.138,0.727 -0.136,0 L 0,0 z"
             style="fill:#231f20;fill-opacity:1;fill-rule:nonzero;stroke:none"
             id="path1198" />
        </g>
        <g
           id="g1200"
           transform="translate(190.8153,307.7278)">
          <path
             inkscape:connector-curvature="0"
             d="m 0,0 -1.166,0 -0.048,-0.046 0,-0.118 0.048,-0.046 1.166,0 0.048,0.046 0,0.118 L 0,0 z"
             style="fill:#918f90;fill-opacity:1;fill-rule:nonzero;stroke:none"
             id="path1202" />
        </g>
        <g
           id="g1204"
           transform="translate(174.9057,297.1583)">
          <path
             inkscape:connector-curvature="0"
             d="m 0,0 0,-0.888 -0.266,0 0,0.888 -0.309,0 0,0.231 0.886,0 L 0.311,0 0,0 z"
             style="fill:#51bbed;fill-opacity:1;fill-rule:nonzero;stroke:none"
             id="path1206" />
        </g>
        <g
           id="g1208"
           transform="translate(176.0513,296.2708)">
          <path
             inkscape:connector-curvature="0"
             d="m 0,0 -0.266,0 -0.416,1.119 0.296,0 0.256,-0.795 0.006,0 0.254,0.795 0.292,0 L 0,0 z"
             style="fill:#51bbed;fill-opacity:1;fill-rule:nonzero;stroke:none"
             id="path1210" />
        </g>
        <g
           id="g1212"
           transform="translate(100.7323,340.97)">
          <path
             inkscape:connector-curvature="0"
             d="M 0,0 -0.136,0 C -0.139,-1.444 -1.306,-2.612 -2.75,-2.614 -4.194,-2.612 -5.362,-1.444 -5.364,0 -5.362,1.442 -4.194,2.611 -2.75,2.613 -1.306,2.611 -0.139,1.442 -0.136,0 L 0,0 0.136,0 c 0,1.592 -1.291,2.885 -2.886,2.885 -1.594,0 -2.886,-1.293 -2.886,-2.885 0,-1.594 1.292,-2.886 2.886,-2.886 1.595,0 2.886,1.292 2.886,2.886 L 0,0 z"
             style="fill:#231f20;fill-opacity:1;fill-rule:nonzero;stroke:none"
             id="path1214" />
        </g>
        <g
           id="g1216"
           transform="translate(100.9659,340.97)">
          <path
             inkscape:connector-curvature="0"
             d="m 0,0 -0.136,0 c 0,-1.574 -1.273,-2.847 -2.847,-2.85 -1.573,0.003 -2.845,1.276 -2.848,2.85 0.003,1.572 1.275,2.844 2.848,2.847 C -1.408,2.844 -0.136,1.573 -0.136,0 L 0,0 0.136,0 c -0.003,1.723 -1.394,3.119 -3.119,3.119 -1.723,0 -3.12,-1.396 -3.12,-3.119 0,-1.724 1.397,-3.122 3.12,-3.122 1.725,0 3.119,1.398 3.119,3.122 L 0,0 z"
             style="fill:#231f20;fill-opacity:1;fill-rule:nonzero;stroke:none"
             id="path1218" />
        </g>
        <g
           id="g1220"
           transform="translate(150.0253,350.5192)">
          <path
             inkscape:connector-curvature="0"
             d="m 0,0 c 0,-0.512 -0.413,-0.926 -0.923,-0.926 -0.513,0 -0.927,0.414 -0.927,0.926 0,0.511 0.414,0.925 0.927,0.925 C -0.413,0.925 0,0.511 0,0"
             style="fill:#656263;fill-opacity:1;fill-rule:nonzero;stroke:none"
             id="path1222" />
        </g>
        <g
           id="g1224"
           transform="translate(150.0253,350.5192)">
          <path
             inkscape:connector-curvature="0"
             d="m 0,0 -0.136,0 c 0,-0.437 -0.353,-0.789 -0.787,-0.79 -0.438,0 -0.791,0.353 -0.791,0.79 0,0.436 0.353,0.788 0.791,0.789 C -0.489,0.788 -0.137,0.436 -0.136,0 L 0,0 0.136,0 c 0,0.586 -0.474,1.061 -1.059,1.061 C -1.511,1.06 -1.985,0.586 -1.986,0 c 10e-4,-0.587 0.475,-1.061 1.063,-1.062 0.585,0 1.058,0.475 1.059,1.062 L 0,0 z"
             style="fill:#231f20;fill-opacity:1;fill-rule:nonzero;stroke:none"
             id="path1226" />
        </g>
        <g
           id="g1228"
           transform="translate(148.9268,350.5192)">
          <path
             inkscape:connector-curvature="0"
             d="m 0,0 c 0,-0.095 0.079,-0.173 0.173,-0.173 0.096,0 0.174,0.078 0.174,0.173 0,0.095 -0.078,0.173 -0.174,0.173 C 0.079,0.173 0,0.095 0,0"
             style="fill:#231f20;fill-opacity:1;fill-rule:nonzero;stroke:none"
             id="path1230" />
        </g>
      </g>
    </g>
    <g
       transform="matrix(6.0700852,0,0,-6.0700852,-344.42002,2354.4341)"
       id="g1232">
      <g
         id="g1234"
         clip-path="url(#clipPath1236)">
        <path
           inkscape:connector-curvature="0"
           d="m 148.927,350.692 0.347,0 0,-0.346 -0.347,0 0,0.346 z"
           style="fill:#231f20;fill-opacity:1;fill-rule:nonzero;stroke:none"
           id="path1240" />
      </g>
    </g>
    <g
       transform="matrix(6.0700852,0,0,-6.0700852,-344.42002,2354.4341)"
       id="g1242">
      <g
         id="g1244"
         clip-path="url(#clipPath1246)">
        <g
           id="g1250"
           transform="translate(97.2869,328.1411)">
          <path
             inkscape:connector-curvature="0"
             d="m 0,0 c 0,0.27 0.219,0.486 0.487,0.486 l 3.045,0 c 0.134,0 0.241,0.111 0.241,0.245 l 0,3.044 c 0,0.27 0.22,0.487 0.491,0.487 l 3.068,0 c 0.27,0 0.488,-0.217 0.488,-0.487 l 0,-3.045 c 0,-0.133 0.109,-0.244 0.244,-0.244 l 3.044,0 c 0.268,0 0.487,-0.216 0.487,-0.486 l 0,-3.07 c 0,-0.27 -0.219,-0.487 -0.487,-0.487 l -3.044,0 C 7.929,-3.557 7.82,-3.667 7.82,-3.8 l 0,-3.045 c 0,-0.269 -0.218,-0.487 -0.488,-0.487 l -3.071,0 c -0.268,0 -0.488,0.218 -0.488,0.487 l 0,3.045 c 0,0.133 -0.107,0.243 -0.241,0.243 l -3.045,0 C 0.219,-3.557 0,-3.34 0,-3.07 L 0,0 z"
             style="fill:#231f20;fill-opacity:1;fill-rule:nonzero;stroke:none"
             id="path1252" />
        </g>
        <g
           id="g1254"
           transform="translate(97.2869,328.1411)">
          <path
             inkscape:connector-curvature="0"
             d="m 0,0 0.136,0 c 0.001,0.194 0.158,0.35 0.351,0.35 l 3.045,0 C 3.743,0.351 3.909,0.524 3.91,0.731 l 0,3.044 c 0,0.194 0.157,0.351 0.354,0.351 l 3.068,0 c 0.195,0 0.352,-0.156 0.352,-0.351 l 0,-3.045 c 0,-0.208 0.168,-0.379 0.38,-0.38 l 3.044,0 c 0.193,0 0.35,-0.156 0.35,-0.35 l 0,-3.07 c 0,-0.195 -0.157,-0.351 -0.35,-0.351 l -3.044,0 c -0.211,0 -0.38,-0.17 -0.38,-0.379 l 0,-3.045 c 0,-0.194 -0.157,-0.351 -0.352,-0.351 l -3.071,0 c -0.193,0 -0.351,0.158 -0.351,0.351 l 0,3.045 c -0.001,0.207 -0.167,0.379 -0.378,0.379 l -3.045,0 c -0.193,0 -0.35,0.157 -0.351,0.351 L 0.136,0 0,0 l -0.136,0 0,-3.07 c 0,-0.345 0.28,-0.623 0.623,-0.623 l 3.045,0 0.105,-0.107 0,-3.045 C 3.638,-7.19 3.918,-7.468 4.261,-7.468 l 3.071,0 c 0.345,0.001 0.624,0.279 0.624,0.623 l 0,3.045 0.108,0.107 3.044,0 c 0.343,0 0.623,0.278 0.623,0.623 l 0,3.07 c 0,0.345 -0.28,0.622 -0.623,0.622 l -3.044,0 -0.108,0.108 0,3.045 C 7.955,4.12 7.677,4.398 7.332,4.399 l -3.068,0 C 3.919,4.398 3.638,4.121 3.637,3.775 l 0,-3.044 -0.105,-0.109 -3.045,0 C 0.144,0.622 -0.136,0.345 -0.136,0 L 0,0 z"
             style="fill:#231f20;fill-opacity:1;fill-rule:nonzero;stroke:none"
             id="path1256" />
        </g>
        <g
           id="g1258"
           transform="translate(97.5413,325.3239)">
          <path
             inkscape:connector-curvature="0"
             d="m 0,0 c 0,-0.27 0.218,-0.488 0.487,-0.488 l 3.05,0.007 c 0.134,0 0.244,-0.108 0.244,-0.242 L 3.774,-3.774 c 0,-0.27 0.217,-0.488 0.487,-0.488 l 2.565,0 c 0.267,0 0.487,0.218 0.487,0.488 l -0.007,3.051 c 0,0.134 0.109,0.242 0.244,0.242 l 3.05,-0.007 c 0.268,0 0.486,0.218 0.486,0.488 l 0,2.564 c 0,0.269 -0.218,0.487 -0.486,0.487 L 7.55,3.046 c -0.135,0 -0.244,0.108 -0.244,0.243 l 0.007,3.05 c 0,0.269 -0.22,0.486 -0.487,0.486 l -2.565,0 C 3.991,6.825 3.775,6.608 3.775,6.339 L 3.781,3.289 C 3.781,3.154 3.672,3.046 3.537,3.046 L 0.487,3.051 C 0.219,3.051 0,2.833 0,2.564 L 0,0 z"
             style="fill:#ffffff;fill-opacity:1;fill-rule:nonzero;stroke:none"
             id="path1260" />
        </g>
        <g
           id="g1262"
           transform="translate(97.5413,325.3239)">
          <path
             inkscape:connector-curvature="0"
             d="m 0,0 -0.136,0 c 0,-0.345 0.279,-0.624 0.623,-0.624 l 0,0 3.05,0.007 0,0 0.108,-0.106 0,0 -0.007,-3.051 0,0 c 0,-0.344 0.278,-0.624 0.623,-0.625 l 2.565,0 c 0.343,0.001 0.623,0.28 0.623,0.625 l 0,0 -0.007,3.051 0,0 0.108,0.106 -10e-4,0 3.051,-0.007 0,0 c 0.343,0.001 0.622,0.279 0.622,0.624 l 0,2.564 c 0,0.344 -0.279,0.623 -0.622,0.623 l 0,0 -3.051,-0.005 10e-4,0 -0.108,0.107 0,0 0.007,3.05 0,0 c 0,0.345 -0.28,0.622 -0.623,0.622 l -2.565,0 C 3.916,6.961 3.639,6.683 3.639,6.339 l 0,0 0.006,-3.05 0,0 -0.108,-0.107 0,0 -3.05,0.005 0,0 c -0.344,0 -0.623,-0.279 -0.623,-0.623 L -0.136,0 0,0 l 0.136,0 0,2.564 c 0,0.193 0.158,0.351 0.351,0.351 l -0.001,0 3.05,-0.005 10e-4,0 c 0.209,0 0.38,0.169 0.38,0.379 l 0,0 -0.006,3.05 0,0 c 0,0.194 0.156,0.35 0.35,0.35 l 2.565,0 c 0.192,0 0.35,-0.157 0.351,-0.35 l 0,0 -0.007,-3.05 0,0 C 7.17,3.079 7.341,2.91 7.55,2.91 l 0,0 3.05,0.005 0,0 c 0.192,0 0.35,-0.158 0.35,-0.351 L 10.95,0 c 0,-0.194 -0.158,-0.351 -0.35,-0.351 l 0,0 -3.05,0.006 0,0 c -0.21,0 -0.38,-0.169 -0.38,-0.378 l 0,-0.001 0.007,-3.051 0,10e-4 C 7.176,-3.968 7.018,-4.126 6.826,-4.126 l -2.565,0 c -0.194,0 -0.351,0.157 -0.351,0.352 l 0,-10e-4 0.007,3.051 0,0.001 c -10e-4,0.21 -0.172,0.378 -0.38,0.378 l -10e-4,0 -3.05,-0.006 0.001,0 C 0.293,-0.351 0.136,-0.194 0.136,0 L 0,0 z"
             style="fill:#231f20;fill-opacity:1;fill-rule:nonzero;stroke:none"
             id="path1264" />
        </g>
        <g
           id="g1266"
           transform="translate(100.9651,326.6063)">
          <path
             inkscape:connector-curvature="0"
             d="m 0,0 c 0,-0.076 -0.06,-0.137 -0.138,-0.137 l -1.845,0 c -0.074,0 -0.135,0.061 -0.135,0.137 0,0.075 0.061,0.136 0.135,0.136 l 1.845,0 C -0.06,0.136 0,0.075 0,0"
             style="fill:#918f90;fill-opacity:1;fill-rule:nonzero;stroke:none"
             id="path1268" />
        </g>
        <g
           id="g1270"
           transform="translate(103.0838,328.7239)">
          <path
             inkscape:connector-curvature="0"
             d="m 0,0 c -0.076,0 -0.137,0.061 -0.137,0.137 l 0,1.845 c 0,0.075 0.061,0.137 0.137,0.137 0.074,0 0.135,-0.062 0.135,-0.137 l 0,-1.845 C 0.135,0.061 0.074,0 0,0"
             style="fill:#918f90;fill-opacity:1;fill-rule:nonzero;stroke:none"
             id="path1272" />
        </g>
        <g
           id="g1274"
           transform="translate(105.2018,326.6063)">
          <path
             inkscape:connector-curvature="0"
             d="m 0,0 c 0,0.075 0.06,0.136 0.137,0.136 l 1.846,0 c 0.073,0 0.134,-0.061 0.134,-0.136 0,-0.076 -0.061,-0.137 -0.134,-0.137 l -1.846,0 C 0.06,-0.137 0,-0.076 0,0"
             style="fill:#918f90;fill-opacity:1;fill-rule:nonzero;stroke:none"
             id="path1276" />
        </g>
        <g
           id="g1278"
           transform="translate(103.0838,324.4872)">
          <path
             inkscape:connector-curvature="0"
             d="m 0,0 c 0.074,0 0.137,-0.062 0.137,-0.136 l 0,-1.845 c 0,-0.074 -0.063,-0.137 -0.137,-0.137 -0.076,0 -0.137,0.063 -0.137,0.137 l 0,1.845 C -0.137,-0.062 -0.076,0 0,0"
             style="fill:#918f90;fill-opacity:1;fill-rule:nonzero;stroke:none"
             id="path1280" />
        </g>
        <g
           id="g1282"
           transform="translate(181.7137,298.7458)">
          <path
             inkscape:connector-curvature="0"
             d="m 0,0 0,0.068 c -1.066,0 -1.929,-0.863 -1.929,-1.931 0,-1.067 0.863,-1.93 1.929,-1.93 1.067,0 1.932,0.863 1.932,1.93 0,1.068 -0.865,1.931 -1.932,1.931 L 0,0 0,-0.068 C 0.992,-0.07 1.794,-0.87 1.796,-1.863 1.794,-2.855 0.992,-3.655 0,-3.657 -0.99,-3.655 -1.791,-2.855 -1.793,-1.863 -1.791,-0.87 -0.99,-0.07 0,-0.068 L 0,0 z"
             style="fill:#231f20;fill-opacity:1;fill-rule:nonzero;stroke:none"
             id="path1284" />
        </g>
        <g
           id="g1286"
           transform="translate(181.7137,295.4294)">
          <path
             inkscape:connector-curvature="0"
             d="m 0,0 0,0.136 c -0.728,0.001 -1.318,0.589 -1.318,1.318 0,0.728 0.59,1.318 1.318,1.319 C 0.73,2.772 1.317,2.182 1.318,1.454 1.318,0.725 0.73,0.136 0,0.136 L 0,0 0,-0.136 c 0.879,0.002 1.589,0.711 1.59,1.59 0,0.878 -0.71,1.591 -1.59,1.591 -0.878,0 -1.59,-0.713 -1.591,-1.591 0,-0.879 0.713,-1.59 1.591,-1.59 L 0,0 z"
             style="fill:#231f20;fill-opacity:1;fill-rule:nonzero;stroke:none"
             id="path1288" />
        </g>
        <g
           id="g1290"
           transform="translate(181.2929,297.4036)">
          <path
             inkscape:connector-curvature="0"
             d="m 0,0 c -0.546,-0.405 -0.26,-1.273 0.421,-1.273 0.68,0 0.966,0.868 0.421,1.273 -0.123,0.077 -0.24,-0.074 -0.132,-0.173 0.378,-0.28 0.183,-0.88 -0.289,-0.88 -0.471,0 -0.667,0.6 -0.289,0.88 C 0.239,-0.074 0.124,0.077 0,0"
             style="fill:#ed1c24;fill-opacity:1;fill-rule:nonzero;stroke:none"
             id="path1292" />
        </g>
        <g
           id="g1294"
           transform="translate(181.6041,297.5778)">
          <path
             inkscape:connector-curvature="0"
             d="M 0,0 0,-0.702 0.11,-0.814 0.22,-0.702 0.22,0 0.11,0.112 0,0 z"
             style="fill:#ed1c24;fill-opacity:1;fill-rule:nonzero;stroke:none"
             id="path1296" />
        </g>
        <g
           id="g1298"
           transform="translate(102.5006,340.97)">
          <path
             inkscape:connector-curvature="0"
             d="m 0,0 c 0,-2.497 -2.023,-4.518 -4.518,-4.518 -2.496,0 -4.518,2.021 -4.518,4.518 0,2.495 2.022,4.519 4.518,4.519 C -2.023,4.519 0,2.495 0,0"
             style="fill:#d3d2d2;fill-opacity:1;fill-rule:nonzero;stroke:none"
             id="path1300" />
        </g>
        <g
           id="g1302"
           transform="translate(102.5006,340.97)">
          <path
             inkscape:connector-curvature="0"
             d="m 0,0 -0.136,0 c 0,-1.211 -0.49,-2.306 -1.284,-3.099 -0.793,-0.793 -1.888,-1.283 -3.098,-1.283 -1.211,0 -2.306,0.49 -3.099,1.283 C -8.41,-2.306 -8.9,-1.211 -8.9,0 c 0,1.21 0.49,2.305 1.283,3.099 0.793,0.793 1.888,1.284 3.099,1.284 1.21,0 2.305,-0.491 3.098,-1.284 C -0.626,2.305 -0.136,1.21 -0.136,0 L 0,0 0.136,0 c 0,2.57 -2.084,4.655 -4.654,4.655 -2.571,0 -4.654,-2.085 -4.654,-4.655 0,-2.572 2.083,-4.654 4.654,-4.654 2.57,0 4.654,2.082 4.654,4.654 L 0,0 z"
             style="fill:#231f20;fill-opacity:1;fill-rule:nonzero;stroke:none"
             id="path1304" />
        </g>
        <g
           id="g1306"
           transform="translate(102.121,340.97)">
          <path
             inkscape:connector-curvature="0"
             d="m 0,0 c 0,2.285 -1.853,4.137 -4.138,4.137 -2.285,0 -4.137,-1.852 -4.137,-4.137 0,-2.287 1.852,-4.137 4.137,-4.137 C -1.853,-4.137 0,-2.287 0,0"
             style="fill:#ffffff;fill-opacity:1;fill-rule:nonzero;stroke:none"
             id="path1308" />
        </g>
        <g
           id="g1310"
           transform="translate(102.121,340.97)">
          <path
             inkscape:connector-curvature="0"
             d="m 0,0 0.136,0 c 0,2.36 -1.914,4.273 -4.274,4.273 -2.36,0 -4.273,-1.913 -4.273,-4.273 0,-2.362 1.913,-4.273 4.273,-4.273 2.36,0 4.274,1.911 4.274,4.273 L 0,0 -0.136,0 c 0,-1.106 -0.448,-2.106 -1.172,-2.83 -0.725,-0.724 -1.725,-1.171 -2.83,-1.171 -1.105,0 -2.105,0.447 -2.829,1.171 -0.724,0.724 -1.171,1.724 -1.172,2.83 10e-4,1.105 0.448,2.105 1.172,2.829 0.724,0.724 1.724,1.172 2.829,1.172 1.105,0 2.105,-0.448 2.83,-1.172 C -0.584,2.105 -0.136,1.105 -0.136,0 L 0,0 z"
             style="fill:#231f20;fill-opacity:1;fill-rule:nonzero;stroke:none"
             id="path1312" />
        </g>
        <g
           id="g1314"
           transform="translate(100.7323,340.97)">
          <path
             inkscape:connector-curvature="0"
             d="M 0,0 -0.136,0 C -0.139,-1.444 -1.306,-2.612 -2.75,-2.614 -4.194,-2.612 -5.362,-1.444 -5.364,0 -5.362,1.442 -4.194,2.611 -2.75,2.613 -1.306,2.611 -0.139,1.442 -0.136,0 L 0,0 0.136,0 c 0,1.592 -1.291,2.885 -2.886,2.885 -1.594,0 -2.886,-1.293 -2.886,-2.885 0,-1.594 1.292,-2.886 2.886,-2.886 1.595,0 2.886,1.292 2.886,2.886 L 0,0 z"
             style="fill:#231f20;fill-opacity:1;fill-rule:nonzero;stroke:none"
             id="path1316" />
        </g>
        <g
           id="g1318"
           transform="translate(100.9686,340.97)">
          <path
             inkscape:connector-curvature="0"
             d="m 0,0 -0.136,0 c -0.003,-1.574 -1.275,-2.847 -2.85,-2.85 -1.572,0.003 -2.845,1.276 -2.848,2.85 0.003,1.572 1.276,2.844 2.848,2.847 C -1.411,2.844 -0.139,1.572 -0.136,0 L 0,0 0.136,0 c 0,1.723 -1.397,3.119 -3.122,3.119 -1.723,0 -3.12,-1.396 -3.12,-3.119 0,-1.724 1.397,-3.122 3.12,-3.122 1.725,0 3.122,1.398 3.122,3.122 L 0,0 z"
             style="fill:#231f20;fill-opacity:1;fill-rule:nonzero;stroke:none"
             id="path1320" />
        </g>
        <g
           id="g1322"
           transform="translate(101.3954,346.3058)">
          <path
             inkscape:connector-curvature="0"
             d="m 0,0 c -1.039,0.664 -2.228,0.996 -3.416,0.996 -1.62,0.001 -3.24,-0.617 -4.475,-1.852 -1.236,-1.236 -1.854,-2.856 -1.854,-4.475 0,-1.189 0.332,-2.378 0.997,-3.415 l 0.188,-0.041 0.041,0.188 c -0.636,0.992 -0.954,2.13 -0.954,3.268 0,1.55 0.591,3.099 1.774,4.282 1.183,1.183 2.732,1.773 4.283,1.773 1.137,0 2.276,-0.318 3.269,-0.953 L 0.041,-0.188 0,0 z"
             style="fill:#231f20;fill-opacity:1;fill-rule:nonzero;stroke:none"
             id="path1324" />
        </g>
        <g
           id="g1326"
           transform="translate(94.5738,335.6332)">
          <path
             inkscape:connector-curvature="0"
             d="m 0,0 c 1.037,-0.665 2.225,-0.997 3.413,-0.997 1.62,0 3.24,0.618 4.477,1.854 1.235,1.236 1.853,2.856 1.853,4.475 0,1.188 -0.333,2.377 -0.998,3.415 L 8.557,8.788 8.516,8.6 C 9.152,7.607 9.471,6.47 9.471,5.332 9.471,3.782 8.88,2.233 7.697,1.049 6.513,-0.134 4.964,-0.725 3.413,-0.725 c -1.137,0 -2.274,0.318 -3.266,0.954 L -0.041,0.188 0,0 z"
             style="fill:#231f20;fill-opacity:1;fill-rule:nonzero;stroke:none"
             id="path1328" />
        </g>
        <g
           id="g1330"
           transform="translate(204.7361,340.97)">
          <path
             inkscape:connector-curvature="0"
             d="m 0,0 c 0,-2.497 -2.023,-4.518 -4.517,-4.518 -2.497,0 -4.521,2.021 -4.521,4.518 0,2.495 2.024,4.519 4.521,4.519 C -2.023,4.519 0,2.495 0,0"
             style="fill:#d3d2d2;fill-opacity:1;fill-rule:nonzero;stroke:none"
             id="path1332" />
        </g>
        <g
           id="g1334"
           transform="translate(204.7361,340.97)">
          <path
             inkscape:connector-curvature="0"
             d="m 0,0 -0.136,0 c 0,-1.211 -0.49,-2.306 -1.283,-3.099 -0.794,-0.793 -1.888,-1.283 -3.098,-1.283 -1.212,0 -2.307,0.49 -3.101,1.283 -0.794,0.793 -1.284,1.888 -1.284,3.099 0,1.21 0.49,2.305 1.284,3.099 0.794,0.793 1.889,1.284 3.101,1.284 1.21,0 2.304,-0.491 3.098,-1.284 C -0.626,2.305 -0.136,1.21 -0.136,0 L 0,0 0.136,0 c 0,2.57 -2.084,4.655 -4.653,4.655 -2.573,0 -4.657,-2.085 -4.657,-4.655 0,-2.572 2.084,-4.654 4.657,-4.654 2.569,0 4.653,2.082 4.653,4.654 L 0,0 z"
             style="fill:#231f20;fill-opacity:1;fill-rule:nonzero;stroke:none"
             id="path1336" />
        </g>
        <g
           id="g1338"
           transform="translate(204.3561,340.97)">
          <path
             inkscape:connector-curvature="0"
             d="m 0,0 c 0,2.285 -1.854,4.137 -4.137,4.137 -2.288,0 -4.14,-1.852 -4.14,-4.137 0,-2.287 1.852,-4.139 4.14,-4.139 C -1.854,-4.139 0,-2.287 0,0"
             style="fill:#ffffff;fill-opacity:1;fill-rule:nonzero;stroke:none"
             id="path1340" />
        </g>
        <g
           id="g1342"
           transform="translate(204.3561,340.97)">
          <path
             inkscape:connector-curvature="0"
             d="M 0,0 0.136,0 C 0.135,2.361 -1.779,4.273 -4.137,4.273 -6.5,4.273 -8.413,2.36 -8.413,0 c 0,-2.362 1.913,-4.275 4.276,-4.276 2.358,10e-4 4.273,1.914 4.273,4.276 L 0,0 -0.137,0 c 0,-1.106 -0.448,-2.106 -1.172,-2.831 -0.725,-0.725 -1.724,-1.172 -2.828,-1.172 -1.107,0 -2.107,0.447 -2.832,1.172 -0.724,0.725 -1.172,1.725 -1.172,2.831 0,1.105 0.447,2.105 1.172,2.829 0.725,0.724 1.725,1.172 2.832,1.172 1.104,0 2.103,-0.448 2.828,-1.172 C -0.585,2.105 -0.137,1.105 -0.137,0 L 0,0 z"
             style="fill:#231f20;fill-opacity:1;fill-rule:nonzero;stroke:none"
             id="path1344" />
        </g>
        <g
           id="g1346"
           transform="translate(202.9657,340.97)">
          <path
             inkscape:connector-curvature="0"
             d="m 0,0 -0.136,0 c -0.002,-1.444 -1.169,-2.612 -2.61,-2.614 -1.447,0.002 -2.612,1.17 -2.616,2.614 0.004,1.442 1.169,2.611 2.616,2.613 C -1.305,2.611 -0.138,1.442 -0.136,0 L 0,0 0.136,0 c 0,1.592 -1.29,2.885 -2.882,2.885 -1.597,0 -2.888,-1.293 -2.888,-2.885 0,-1.594 1.291,-2.886 2.888,-2.886 1.592,0 2.882,1.292 2.882,2.886 L 0,0 z"
             style="fill:#231f20;fill-opacity:1;fill-rule:nonzero;stroke:none"
             id="path1348" />
        </g>
        <g
           id="g1350"
           transform="translate(203.2025,340.97)">
          <path
             inkscape:connector-curvature="0"
             d="M 0,0 -0.136,0 C -0.138,-1.574 -1.413,-2.847 -2.983,-2.85 -4.559,-2.847 -5.831,-1.574 -5.834,0 -5.831,1.572 -4.559,2.844 -2.983,2.847 -1.413,2.844 -0.138,1.572 -0.136,0 L 0,0 0.136,0 c 0,1.723 -1.398,3.119 -3.119,3.119 -1.727,0 -3.123,-1.396 -3.123,-3.119 0,-1.724 1.396,-3.122 3.123,-3.122 1.721,0 3.119,1.398 3.119,3.122 L 0,0 z"
             style="fill:#231f20;fill-opacity:1;fill-rule:nonzero;stroke:none"
             id="path1352" />
        </g>
        <g
           id="g1354"
           transform="translate(203.6281,346.3058)">
          <path
             inkscape:connector-curvature="0"
             d="m 0,0 c -1.038,0.664 -2.226,0.996 -3.414,0.996 -1.62,0 -3.24,-0.618 -4.476,-1.854 -1.236,-1.235 -1.853,-2.855 -1.853,-4.474 0,-1.188 0.333,-2.376 0.996,-3.414 l 0.188,-0.041 0.041,0.188 c -0.635,0.992 -0.952,2.13 -0.952,3.267 0,1.55 0.589,3.099 1.772,4.282 1.184,1.183 2.732,1.774 4.284,1.774 1.136,0 2.274,-0.318 3.268,-0.953 L 0.042,-0.188 0,0 z"
             style="fill:#231f20;fill-opacity:1;fill-rule:nonzero;stroke:none"
             id="path1356" />
        </g>
        <g
           id="g1358"
           transform="translate(196.8065,335.6332)">
          <path
             inkscape:connector-curvature="0"
             d="m 0,0 c 1.038,-0.665 2.226,-0.997 3.414,-0.997 1.62,0 3.241,0.618 4.476,1.854 1.236,1.235 1.854,2.855 1.854,4.475 0,1.188 -0.333,2.377 -0.998,3.415 L 8.558,8.788 8.518,8.6 C 9.154,7.607 9.472,6.469 9.472,5.332 9.472,3.781 8.882,2.232 7.698,1.049 6.515,-0.134 4.966,-0.725 3.414,-0.725 c -1.137,0 -2.275,0.318 -3.267,0.954 L -0.041,0.188 0,0 z"
             style="fill:#231f20;fill-opacity:1;fill-rule:nonzero;stroke:none"
             id="path1360" />
        </g>
        <g
           id="g1362"
           transform="translate(149.4674,296.4567)">
          <path
             inkscape:connector-curvature="0"
             d="m 0,0 -0.073,-0.073 -0.589,0 -0.073,0.073 0,0.442 0.073,0.074 0.589,0 L 0,0.445 0,0 z M 0.78,0.718 C 0.413,1.03 0.046,1.343 -0.32,1.654 l -0.094,0 C -0.781,1.343 -1.148,1.03 -1.515,0.718 -1.58,0.662 -1.553,0.589 -1.468,0.589 l 0.143,0 0.073,-0.073 0,-0.958 0.075,-0.074 1.62,0 0.074,0.074 0,0.958 0.073,0.073 0.142,0 c 0.087,0 0.114,0.073 0.048,0.129"
             style="fill:#918f90;fill-opacity:1;fill-rule:nonzero;stroke:none"
             id="path1364" />
        </g>
        <g
           id="g1366"
           transform="translate(105.435,309.5911)">
          <path
             inkscape:connector-curvature="0"
             d="m 0,0 c 0,-0.144 -0.118,-0.262 -0.261,-0.262 l -4.182,0 c -0.143,0 -0.26,0.118 -0.26,0.262 l 0,2.248 c 0,0.143 0.117,0.261 0.26,0.261 l 4.182,0 C -0.118,2.509 0,2.391 0,2.248 L 0,0 z m -0.261,2.77 -4.182,0 c -0.286,0 -0.521,-0.234 -0.521,-0.522 l 0,-2.248 c 0,-0.287 0.235,-0.522 0.521,-0.522 l 4.182,0 c 0.288,0 0.523,0.235 0.523,0.522 l 0,2.248 c 0,0.288 -0.235,0.522 -0.523,0.522"
             style="fill:#918f90;fill-opacity:1;fill-rule:nonzero;stroke:none"
             id="path1368" />
        </g>
        <g
           id="g1370"
           transform="translate(106.1194,309.4262)">
          <path
             inkscape:connector-curvature="0"
             d="m 0,0 -0.066,0.065 0,2.367 c 0,0.475 -0.387,0.863 -0.862,0.863 l -4.299,0 -0.065,0.064 0.065,0.064 4.299,0 c 0.548,0 0.993,-0.444 0.993,-0.991 l 0,-2.367 L 0,0 z"
             style="fill:#918f90;fill-opacity:1;fill-rule:nonzero;stroke:none"
             id="path1372" />
        </g>
        <g
           id="g1374"
           transform="translate(119.1565,297.9349)">
          <path
             inkscape:connector-curvature="0"
             d="m 0,0 c 0,-0.184 0.157,-0.334 0.347,-0.334 0.197,0 0.352,0.148 0.352,0.334 0,0.188 -0.155,0.334 -0.352,0.334 C 0.157,0.334 0,0.184 0,0"
             style="fill:#918f90;fill-opacity:1;fill-rule:nonzero;stroke:none"
             id="path1376" />
        </g>
        <path
           inkscape:connector-curvature="0"
           d="m 119.215,295.36 0.588,0 0,1.908 -0.588,0 0,-1.908 z"
           style="fill:#918f90;fill-opacity:1;fill-rule:nonzero;stroke:none"
           id="path1378" />
        <g
           id="g1380"
           transform="translate(120.3569,297.9349)">
          <path
             inkscape:connector-curvature="0"
             d="m 0,0 c 0,-0.184 0.154,-0.334 0.345,-0.334 0.196,0 0.353,0.148 0.353,0.334 0,0.188 -0.157,0.334 -0.353,0.334 C 0.154,0.334 0,0.184 0,0"
             style="fill:#918f90;fill-opacity:1;fill-rule:nonzero;stroke:none"
             id="path1382" />
        </g>
        <path
           inkscape:connector-curvature="0"
           d="m 120.413,295.36 0.589,0 0,1.908 -0.589,0 0,-1.908 z"
           style="fill:#918f90;fill-opacity:1;fill-rule:nonzero;stroke:none"
           id="path1384" />
        <g
           id="g1386"
           transform="translate(118.2757,298.1098)">
          <path
             inkscape:connector-curvature="0"
             d="m 0,0 -0.517,-2.029 c 0,0 -0.396,1.523 -0.459,1.738 -0.065,0.218 -0.198,0.31 -0.384,0.31 -0.188,0 -0.321,-0.092 -0.387,-0.31 -0.063,-0.215 -0.459,-1.738 -0.459,-1.738 L -2.723,0 -3.346,0 c 0,0 0.598,-2.164 0.68,-2.416 0.063,-0.194 0.214,-0.356 0.435,-0.356 0.255,0 0.372,0.187 0.427,0.356 0.056,0.171 0.444,1.6 0.444,1.6 0,0 0.386,-1.429 0.44,-1.6 0.055,-0.169 0.174,-0.356 0.429,-0.356 0.222,0 0.372,0.162 0.435,0.356 C 0.026,-2.164 0.624,0 0.624,0 L 0,0 z"
             style="fill:#918f90;fill-opacity:1;fill-rule:nonzero;stroke:none"
             id="path1388" />
        </g>
        <g
           id="g1390"
           transform="translate(124.2831,298.2684)">
          <path
             inkscape:connector-curvature="0"
             d="m 0,0 -0.33,0 0,-1.026 c 0,-0.495 -0.287,-0.762 -0.745,-0.762 -0.462,0 -0.748,0.267 -0.748,0.762 l 0,1.026 -0.331,0 c -0.241,0 -0.387,-0.146 -0.387,-0.387 l 0,-1.255 c 0,-0.363 0.191,-0.556 0.554,-0.556 l 1.819,0 c 0.365,0 0.555,0.193 0.555,0.556 l 0,1.255 C 0.387,-0.146 0.243,0 0,0 m -1.075,-1.46 c 0.22,0 0.385,0.172 0.385,0.442 l 0,1.018 -0.773,0 0,-1.018 c 0,-0.27 0.166,-0.442 0.388,-0.442"
             style="fill:#918f90;fill-opacity:1;fill-rule:nonzero;stroke:none"
             id="path1392" />
        </g>
        <g
           id="g1394"
           transform="translate(188.7321,304.8544)">
          <path
             inkscape:connector-curvature="0"
             d="m 0,0 -0.145,0.069 c -0.067,0 -0.145,-0.035 -0.145,-0.121 0,-0.08 0.07,-0.103 0.151,-0.13 0.101,-0.03 0.219,-0.069 0.219,-0.216 0,-0.156 -0.124,-0.226 -0.256,-0.226 -0.094,0 -0.19,0.037 -0.244,0.108 l 0.08,0.068 0.164,-0.087 c 0.07,0 0.151,0.039 0.151,0.127 0,0.091 -0.082,0.115 -0.177,0.144 -0.095,0.03 -0.192,0.073 -0.192,0.209 0,0.148 0.13,0.21 0.254,0.21 0.086,0 0.167,-0.032 0.213,-0.082 L 0,0 z"
             style="fill:#918f90;fill-opacity:1;fill-rule:nonzero;stroke:none"
             id="path1396" />
        </g>
        <g
           id="g1398"
           transform="translate(189.0849,304.3419)">
          <path
             inkscape:connector-curvature="0"
             d="m 0,0 0.389,0 0,-0.093 -0.493,0 0,0.744 0.477,0 0,-0.092 -0.373,0 0,-0.223 0.35,0 0,-0.09 L 0,0.246 0,0 z"
             style="fill:#918f90;fill-opacity:1;fill-rule:nonzero;stroke:none"
             id="path1400" />
        </g>
        <g
           id="g1402"
           transform="translate(189.7369,304.3419)">
          <path
             inkscape:connector-curvature="0"
             d="m 0,0 0.333,0 0,-0.093 -0.437,0 0,0.744 L 0,0.651 0,0 z"
             style="fill:#918f90;fill-opacity:1;fill-rule:nonzero;stroke:none"
             id="path1404" />
        </g>
        <g
           id="g1406"
           transform="translate(190.2953,304.3419)">
          <path
             inkscape:connector-curvature="0"
             d="m 0,0 0.387,0 0,-0.093 -0.491,0 0,0.744 0.477,0 0,-0.092 -0.373,0 0,-0.223 0.353,0 0,-0.09 L 0,0.246 0,0 z"
             style="fill:#918f90;fill-opacity:1;fill-rule:nonzero;stroke:none"
             id="path1408" />
        </g>
        <g
           id="g1410"
           transform="translate(191.4817,304.3629)">
          <path
             inkscape:connector-curvature="0"
             d="m 0,0 c -0.058,-0.078 -0.154,-0.133 -0.284,-0.133 -0.228,0 -0.39,0.163 -0.39,0.391 0,0.232 0.168,0.389 0.395,0.389 0.103,0 0.213,-0.038 0.267,-0.115 L -0.094,0.47 c -0.036,0.052 -0.108,0.086 -0.185,0.086 -0.173,0 -0.283,-0.134 -0.283,-0.298 0,-0.166 0.107,-0.299 0.28,-0.299 0.082,0 0.155,0.035 0.2,0.1 L 0,0 z"
             style="fill:#918f90;fill-opacity:1;fill-rule:nonzero;stroke:none"
             id="path1412" />
        </g>
        <g
           id="g1414"
           transform="translate(191.9121,304.249)">
          <path
             inkscape:connector-curvature="0"
             d="m 0,0 -0.103,0 0,0.652 -0.238,0 0,0.092 0.582,0 0,-0.092 L 0,0.652 0,0 z"
             style="fill:#918f90;fill-opacity:1;fill-rule:nonzero;stroke:none"
             id="path1416" />
        </g>
        <g
           id="g1418"
           transform="translate(147.5506,293.477)">
          <path
             inkscape:connector-curvature="0"
             d="m 0,0 0.105,0 0,-0.311 0.375,0 0,0.311 0.104,0 0,-0.742 -0.104,0 0,0.339 -0.375,0 0,-0.339 L 0,-0.742 0,0 z"
             style="fill:#918f90;fill-opacity:1;fill-rule:nonzero;stroke:none"
             id="path1420" />
        </g>
        <g
           id="g1422"
           transform="translate(148.6718,293.4052)">
          <path
             inkscape:connector-curvature="0"
             d="m 0,0 c -0.172,0 -0.281,-0.135 -0.281,-0.298 0,-0.168 0.111,-0.3 0.281,-0.3 0.172,0 0.284,0.132 0.284,0.3 C 0.284,-0.135 0.172,0 0,0 m 0,-0.69 c -0.226,0 -0.394,0.163 -0.394,0.392 0,0.232 0.168,0.389 0.394,0.389 0.226,0 0.394,-0.157 0.394,-0.389 C 0.394,-0.527 0.226,-0.69 0,-0.69"
             style="fill:#918f90;fill-opacity:1;fill-rule:nonzero;stroke:none"
             id="path1424" />
        </g>
        <g
           id="g1426"
           transform="translate(149.5929,292.9067)">
          <path
             inkscape:connector-curvature="0"
             d="m 0,0 0.002,0 0.22,0.57 0.162,0 0,-0.742 -0.105,0 0,0.619 -0.002,0 -0.247,-0.619 -0.066,0 -0.245,0.619 -0.003,0 0,-0.619 -0.101,0 0,0.742 0.163,0 L 0,0 z"
             style="fill:#918f90;fill-opacity:1;fill-rule:nonzero;stroke:none"
             id="path1428" />
        </g>
        <g
           id="g1430"
           transform="translate(150.2612,292.8255)">
          <path
             inkscape:connector-curvature="0"
             d="m 0,0 0.388,0 0,-0.091 -0.491,0 0,0.742 0.476,0 0,-0.091 -0.373,0 0,-0.223 0.352,0 0,-0.089 L 0,0.248 0,0 z"
             style="fill:#918f90;fill-opacity:1;fill-rule:nonzero;stroke:none"
             id="path1432" />
        </g>
        <g
           id="g1434"
           transform="translate(189.0969,311.2021)">
          <path
             inkscape:connector-curvature="0"
             d="m 0,0 -0.146,0.07 c -0.065,0 -0.144,-0.037 -0.144,-0.121 0,-0.081 0.069,-0.104 0.152,-0.131 0.1,-0.032 0.219,-0.07 0.219,-0.216 0,-0.156 -0.127,-0.229 -0.258,-0.229 -0.094,0 -0.188,0.04 -0.245,0.111 l 0.083,0.068 0.164,-0.088 c 0.069,0 0.149,0.039 0.149,0.127 0,0.09 -0.081,0.116 -0.176,0.143 -0.095,0.03 -0.194,0.074 -0.194,0.21 0,0.149 0.134,0.212 0.257,0.212 0.085,0 0.166,-0.033 0.213,-0.084 L 0,0 z"
             style="fill:#918f90;fill-opacity:1;fill-rule:nonzero;stroke:none"
             id="path1436" />
        </g>
        <g
           id="g1438"
           transform="translate(189.5905,310.5958)">
          <path
             inkscape:connector-curvature="0"
             d="m 0,0 -0.104,0 0,0.652 -0.24,0 0,0.09 0.581,0 0,-0.09 L 0,0.652 0,0 z"
             style="fill:#918f90;fill-opacity:1;fill-rule:nonzero;stroke:none"
             id="path1440" />
        </g>
        <g
           id="g1442"
           transform="translate(190.0265,310.8708)">
          <path
             inkscape:connector-curvature="0"
             d="M 0,0 0.278,0 0.14,0.348 0,0 z m -0.112,-0.275 -0.114,0 0.323,0.742 0.093,0 0.319,-0.742 -0.116,0 -0.077,0.183 -0.353,0 -0.075,-0.183 z"
             style="fill:#918f90;fill-opacity:1;fill-rule:nonzero;stroke:none"
             id="path1444" />
        </g>
        <g
           id="g1446"
           transform="translate(190.7561,311.0129)">
          <path
             inkscape:connector-curvature="0"
             d="m 0,0 0.122,0 c 0.096,0 0.172,0.033 0.172,0.12 0,0.091 -0.076,0.119 -0.167,0.119 L 0,0.239 0,0 z m 0,-0.417 -0.102,0 0,0.742 0.236,0 c 0.145,0 0.267,-0.053 0.267,-0.205 0,-0.107 -0.076,-0.178 -0.181,-0.197 l 0.208,-0.34 -0.128,0 -0.187,0.331 -0.113,0 0,-0.331 z"
             style="fill:#918f90;fill-opacity:1;fill-rule:nonzero;stroke:none"
             id="path1448" />
        </g>
        <g
           id="g1450"
           transform="translate(191.5673,310.5958)">
          <path
             inkscape:connector-curvature="0"
             d="m 0,0 -0.106,0 0,0.652 -0.236,0 0,0.09 0.58,0 0,-0.09 L 0,0.652 0,0 z"
             style="fill:#918f90;fill-opacity:1;fill-rule:nonzero;stroke:none"
             id="path1452" />
        </g>
        <g
           id="g1454"
           transform="translate(141.2257,292.9067)">
          <path
             inkscape:connector-curvature="0"
             d="m 0,0 0.003,0 0.219,0.57 0.162,0 0,-0.742 -0.104,0 0,0.619 -0.002,0 -0.246,-0.619 -0.066,0 -0.246,0.619 -0.002,0 0,-0.619 -0.102,0 0,0.742 0.163,0 L 0,0 z"
             style="fill:#918f90;fill-opacity:1;fill-rule:nonzero;stroke:none"
             id="path1456" />
        </g>
        <path
           inkscape:connector-curvature="0"
           d="m 141.907,292.735 -0.106,0 0,0.742 0.106,0 0,-0.742 z"
           style="fill:#918f90;fill-opacity:1;fill-rule:nonzero;stroke:none"
           id="path1458" />
        <g
           id="g1460"
           transform="translate(142.7342,292.8481)">
          <path
             inkscape:connector-curvature="0"
             d="m 0,0 c -0.057,-0.078 -0.154,-0.133 -0.286,-0.133 -0.226,0 -0.391,0.163 -0.391,0.392 0,0.232 0.172,0.389 0.397,0.389 0.102,0 0.213,-0.04 0.267,-0.116 L -0.095,0.47 c -0.035,0.05 -0.108,0.087 -0.185,0.087 -0.172,0 -0.282,-0.135 -0.282,-0.298 0,-0.168 0.109,-0.3 0.279,-0.3 0.083,0 0.156,0.035 0.199,0.1 L 0,0 z"
             style="fill:#918f90;fill-opacity:1;fill-rule:nonzero;stroke:none"
             id="path1462" />
        </g>
        <g
           id="g1464"
           transform="translate(166.9153,292.8208)">
          <path
             inkscape:connector-curvature="0"
             d="m 0,0 0.13,0 c 0.09,0 0.185,0.027 0.185,0.13 0,0.086 -0.062,0.125 -0.174,0.125 L 0,0.255 0,0 z m 0,0.342 0.138,0 c 0.079,0 0.144,0.035 0.144,0.115 0,0.08 -0.064,0.112 -0.164,0.112 L 0,0.569 0,0.342 z m -0.102,0.314 0.255,0 c 0.113,0 0.234,-0.046 0.234,-0.188 0,-0.082 -0.054,-0.141 -0.131,-0.162 l 0,-0.001 C 0.352,0.293 0.421,0.227 0.421,0.124 c 0,-0.143 -0.123,-0.212 -0.279,-0.212 l -0.244,0 0,0.744 z"
             style="fill:#918f90;fill-opacity:1;fill-rule:nonzero;stroke:none"
             id="path1466" />
        </g>
        <g
           id="g1468"
           transform="translate(167.6377,293.0067)">
          <path
             inkscape:connector-curvature="0"
             d="M 0,0 0.279,0 0.142,0.349 0,0 z m -0.11,-0.273 -0.116,0 0.324,0.743 0.095,0 0.317,-0.743 -0.117,0 -0.075,0.182 -0.354,0 -0.074,-0.182 z"
             style="fill:#918f90;fill-opacity:1;fill-rule:nonzero;stroke:none"
             id="path1470" />
        </g>
        <g
           id="g1472"
           transform="translate(168.4513,292.7332)">
          <path
             inkscape:connector-curvature="0"
             d="m 0,0 -0.103,0 0,0.652 -0.239,0 0,0.092 0.58,0 0,-0.092 L 0,0.652 0,0 z"
             style="fill:#918f90;fill-opacity:1;fill-rule:nonzero;stroke:none"
             id="path1474" />
        </g>
        <g
           id="g1476"
           transform="translate(169.1105,292.7332)">
          <path
             inkscape:connector-curvature="0"
             d="m 0,0 -0.103,0 0,0.652 -0.241,0 0,0.092 0.582,0 0,-0.092 L 0,0.652 0,0 z"
             style="fill:#918f90;fill-opacity:1;fill-rule:nonzero;stroke:none"
             id="path1478" />
        </g>
        <g
           id="g1480"
           transform="translate(169.5617,292.8255)">
          <path
             inkscape:connector-curvature="0"
             d="m 0,0 0.39,0 0,-0.092 -0.493,0 0,0.743 0.477,0 0,-0.091 -0.374,0 0,-0.223 0.351,0 0,-0.089 L 0,0.248 0,0 z"
             style="fill:#918f90;fill-opacity:1;fill-rule:nonzero;stroke:none"
             id="path1482" />
        </g>
        <g
           id="g1484"
           transform="translate(170.2033,293.1513)">
          <path
             inkscape:connector-curvature="0"
             d="m 0,0 0.121,0 c 0.098,0 0.173,0.03 0.173,0.12 0,0.09 -0.075,0.117 -0.165,0.117 L 0,0.237 0,0 z m 0,-0.418 -0.103,0 0,0.744 0.238,0 c 0.146,0 0.264,-0.055 0.264,-0.206 0,-0.11 -0.074,-0.179 -0.18,-0.196 l 0.207,-0.342 -0.124,0 -0.189,0.331 -0.113,0 0,-0.331 z"
             style="fill:#918f90;fill-opacity:1;fill-rule:nonzero;stroke:none"
             id="path1486" />
        </g>
        <g
           id="g1488"
           transform="translate(171.0369,292.7332)">
          <path
             inkscape:connector-curvature="0"
             d="m 0,0 -0.104,0 0,0.322 -0.278,0.422 0.129,0 0.203,-0.335 0.208,0.335 0.122,0 L 0,0.322 0,0 z"
             style="fill:#918f90;fill-opacity:1;fill-rule:nonzero;stroke:none"
             id="path1490" />
        </g>
        <g
           id="g1492"
           transform="translate(179.9593,293.1482)">
          <path
             inkscape:connector-curvature="0"
             d="m 0,0 0.111,0 c 0.102,0 0.172,0.033 0.172,0.122 0,0.091 -0.073,0.119 -0.171,0.119 L 0,0.241 0,0 z m -0.103,0.329 0.226,0 c 0.16,0 0.265,-0.062 0.265,-0.207 0,-0.149 -0.117,-0.211 -0.27,-0.211 l -0.118,0 0,-0.324 -0.103,0 0,0.742 z"
             style="fill:#918f90;fill-opacity:1;fill-rule:nonzero;stroke:none"
             id="path1494" />
        </g>
        <g
           id="g1496"
           transform="translate(180.8345,293.4052)">
          <path
             inkscape:connector-curvature="0"
             d="m 0,0 c -0.17,0 -0.279,-0.135 -0.279,-0.298 0,-0.168 0.109,-0.3 0.279,-0.3 0.173,0 0.284,0.132 0.284,0.3 C 0.284,-0.135 0.173,0 0,0 m 0,-0.69 c -0.224,0 -0.391,0.163 -0.391,0.392 0,0.232 0.167,0.389 0.391,0.389 0.229,0 0.396,-0.157 0.396,-0.389 C 0.396,-0.527 0.229,-0.69 0,-0.69"
             style="fill:#918f90;fill-opacity:1;fill-rule:nonzero;stroke:none"
             id="path1498" />
        </g>
        <g
           id="g1500"
           transform="translate(181.5681,292.8849)">
          <path
             inkscape:connector-curvature="0"
             d="m 0,0 0.005,0 0.173,0.592 0.114,0 L 0.466,0 0.467,0 0.63,0.592 l 0.111,0 -0.218,-0.742 -0.108,0 -0.182,0.597 -0.183,-0.597 -0.108,0 -0.217,0.742 0.113,0 L 0,0 z"
             style="fill:#918f90;fill-opacity:1;fill-rule:nonzero;stroke:none"
             id="path1502" />
        </g>
        <g
           id="g1504"
           transform="translate(182.5145,292.8255)">
          <path
             inkscape:connector-curvature="0"
             d="m 0,0 0.389,0 0,-0.091 -0.492,0 0,0.742 0.476,0 0,-0.091 -0.373,0 0,-0.223 0.35,0 0,-0.089 L 0,0.248 0,0 z"
             style="fill:#918f90;fill-opacity:1;fill-rule:nonzero;stroke:none"
             id="path1506" />
        </g>
        <g
           id="g1508"
           transform="translate(183.1457,293.1513)">
          <path
             inkscape:connector-curvature="0"
             d="m 0,0 0.121,0 c 0.097,0 0.173,0.03 0.173,0.12 0,0.09 -0.076,0.118 -0.167,0.118 L 0,0.238 0,0 z m 0,-0.416 -0.103,0 0,0.742 0.237,0 C 0.279,0.326 0.4,0.271 0.4,0.12 0.4,0.01 0.324,-0.059 0.218,-0.076 l 0.209,-0.34 -0.127,0 -0.188,0.329 -0.112,0 0,-0.329 z"
             style="fill:#918f90;fill-opacity:1;fill-rule:nonzero;stroke:none"
             id="path1510" />
        </g>
        <g
           id="g1512"
           transform="translate(173.6121,292.8676)">
          <path
             inkscape:connector-curvature="0"
             d="m 0,0 c -0.057,-0.08 -0.147,-0.136 -0.271,-0.136 -0.219,0 -0.376,0.163 -0.376,0.393 0,0.231 0.162,0.389 0.38,0.389 0.098,0 0.202,-0.04 0.253,-0.115 L -0.09,0.467 -0.267,0.555 c -0.166,0 -0.272,-0.136 -0.272,-0.298 0,-0.166 0.103,-0.301 0.268,-0.301 0.081,0 0.149,0.037 0.191,0.102 L 0,0 z"
             style="fill:#918f90;fill-opacity:1;fill-rule:nonzero;stroke:none"
             id="path1514" />
        </g>
        <g
           id="g1516"
           transform="translate(174.0433,293.4224)">
          <path
             inkscape:connector-curvature="0"
             d="m 0,0 c -0.164,0 -0.27,-0.136 -0.27,-0.298 0,-0.166 0.107,-0.299 0.27,-0.299 0.165,0 0.27,0.133 0.27,0.299 C 0.27,-0.136 0.166,0 0,0 m 0,-0.691 c -0.217,0 -0.378,0.163 -0.378,0.393 0,0.232 0.161,0.389 0.378,0.389 0.217,0 0.378,-0.157 0.378,-0.389 0,-0.23 -0.161,-0.393 -0.378,-0.393"
             style="fill:#918f90;fill-opacity:1;fill-rule:nonzero;stroke:none"
             id="path1518" />
        </g>
        <g
           id="g1520"
           transform="translate(175.0617,292.8989)">
          <path
             inkscape:connector-curvature="0"
             d="m 0,0 0.003,0 0,0.597 0.098,0 0,-0.744 -0.126,0 -0.377,0.606 0,0 0,-0.606 -0.101,0 0,0.744 0.13,0 L 0,0 z"
             style="fill:#918f90;fill-opacity:1;fill-rule:nonzero;stroke:none"
             id="path1522" />
        </g>
        <g
           id="g1524"
           transform="translate(175.5873,292.752)">
          <path
             inkscape:connector-curvature="0"
             d="m 0,0 -0.1,0 0,0.65 -0.227,0 0,0.094 0.557,0 0,-0.094 L 0,0.65 0,0 z"
             style="fill:#918f90;fill-opacity:1;fill-rule:nonzero;stroke:none"
             id="path1526" />
        </g>
        <g
           id="g1528"
           transform="translate(176.0121,293.1693)">
          <path
             inkscape:connector-curvature="0"
             d="m 0,0 0.114,0 c 0.094,0 0.167,0.03 0.167,0.12 0,0.089 -0.073,0.117 -0.16,0.117 L 0,0.237 0,0 z m 0,-0.417 -0.1,0 0,0.744 0.228,0 C 0.266,0.327 0.382,0.27 0.382,0.12 0.382,0.011 0.31,-0.059 0.21,-0.077 l 0.198,-0.34 -0.121,0 -0.181,0.33 -0.106,0 0,-0.33 z"
             style="fill:#918f90;fill-opacity:1;fill-rule:nonzero;stroke:none"
             id="path1530" />
        </g>
        <g
           id="g1532"
           transform="translate(176.8713,293.4224)">
          <path
             inkscape:connector-curvature="0"
             d="m 0,0 c -0.164,0 -0.269,-0.136 -0.269,-0.298 0,-0.166 0.105,-0.299 0.269,-0.299 0.166,0 0.272,0.133 0.272,0.299 C 0.272,-0.136 0.166,0 0,0 m 0,-0.691 c -0.215,0 -0.377,0.163 -0.377,0.393 0,0.232 0.162,0.389 0.377,0.389 0.218,0 0.379,-0.157 0.379,-0.389 0,-0.23 -0.161,-0.393 -0.379,-0.393"
             style="fill:#918f90;fill-opacity:1;fill-rule:nonzero;stroke:none"
             id="path1534" />
        </g>
        <g
           id="g1536"
           transform="translate(177.4865,292.8434)">
          <path
             inkscape:connector-curvature="0"
             d="m 0,0 0.319,0 0,-0.091 -0.418,0 0,0.743 L 0,0.652 0,0 z"
             style="fill:#918f90;fill-opacity:1;fill-rule:nonzero;stroke:none"
             id="path1538" />
        </g>
      </g>
    </g>
  </g>
</svg>
